<svg xmlns="http://www.w3.org/2000/svg" xmlns:xlink="http://www.w3.org/1999/xlink" width="512" zoomAndPan="magnify" viewBox="0 0 384 383.999986" height="512" preserveAspectRatio="xMidYMid meet" version="1.0"><rect x="-38.4" width="460.8" fill="#ffffff" y="-38.399999" height="460.799983" fill-opacity="1"/><rect x="-38.4" width="460.8" fill="#ffffff" y="-38.399999" height="460.799983" fill-opacity="1"/><rect x="-38.4" width="460.8" fill="#ffffff" y="-38.399999" height="460.799983" fill-opacity="1"/><path fill="#000000" d="M 44.191406 125.328125 C 44.125 125.222656 44.054688 125.109375 43.996094 125.015625 C 42.902344 123.011719 41.242188 122.171875 39.050781 122.492188 C 37.945312 122.585938 36.835938 122.632812 35.730469 122.632812 C 36.503906 123.886719 36.304688 125.132812 35.648438 126.042969 C 38.636719 126.917969 41.957031 127.101562 44.191406 125.328125 Z M 96.757812 76.558594 C 96.320312 75.070312 95.179688 73.894531 92.160156 73.054688 C 88.144531 71.925781 85.621094 73.582031 83.648438 75.980469 C 87.925781 77.085938 92.308594 77.304688 96.757812 76.558594 Z M 162.675781 283.730469 C 166.816406 277.242188 169.410156 271.375 168.363281 263.226562 C 166.769531 250.964844 158.320312 242.496094 145.671875 241.875 C 135.949219 241.414062 130.65625 247.613281 124.8125 253.972656 C 124.90625 254.378906 124.90625 254.78125 124.835938 255.171875 C 132.527344 259.863281 135.085938 266.859375 139.972656 275.050781 C 143.375 280.757812 148.265625 285.296875 151.078125 291.382812 C 151.976562 293.328125 152.507812 295.402344 153.382812 297.363281 C 154.066406 298.90625 154.398438 299.898438 154.546875 300.519531 C 154.617188 300.164062 154.789062 299.75 155.21875 299.34375 C 156.453125 298.113281 156.726562 295.011719 157.410156 293.328125 C 158.917969 289.769531 160.613281 286.980469 162.675781 283.730469 Z M 169.363281 65.136719 C 170.320312 65.378906 171.265625 65.574219 172.222656 65.746094 C 171.75 62.429688 170.136719 60.332031 165.835938 62.210938 C 165.421875 62.40625 164.960938 62.878906 164.488281 63.5 C 165.59375 64.375 168.523438 64.90625 169.363281 65.136719 Z M 229.046875 78.792969 C 227.199219 75.335938 223.996094 73.054688 218.367188 72.949219 C 219.429688 75.070312 222.023438 76.660156 224.042969 77.570312 C 225.65625 78.273438 227.339844 78.652344 229.046875 78.792969 Z M 207.09375 262.917969 C 214.980469 267.042969 222.75 269.230469 231.71875 268.058594 C 228.710938 265.84375 225.78125 263.367188 222.578125 262.503906 C 221.25 262.121094 212.316406 262.480469 207.09375 262.917969 Z M 286.984375 110.058594 C 287.34375 104.285156 283.734375 101.324219 278.902344 100.054688 C 278.773438 100.148438 278.636719 100.238281 278.488281 100.296875 C 277.773438 100.585938 277.070312 100.941406 276.375 101.277344 C 278.105469 105.34375 282.84375 108.25 286.984375 110.058594 Z M 333.578125 137.152344 C 335.839844 132.324219 333.820312 127.703125 327.375 128.648438 C 327.085938 128.910156 326.777344 129.175781 326.488281 129.429688 C 327.328125 133.0625 330.246094 135.527344 333.578125 137.152344 Z M 351.578125 175.238281 C 353.109375 173.417969 352.707031 171.449219 350.378906 169.304688 C 349.824219 164.660156 347.171875 163 342.339844 164.328125 C 342.238281 164.636719 342.074219 164.902344 341.925781 165.144531 C 341.855469 165.386719 341.765625 165.605469 341.660156 165.835938 C 343.933594 170.03125 346.90625 173.867188 351.578125 175.238281 Z M 344.09375 272.988281 C 348.984375 264.265625 353.480469 256.394531 362.566406 252.140625 C 359.566406 245.261719 319.464844 246.183594 315.464844 246.519531 C 298.722656 247.890625 283.929688 254.402344 268.917969 261.441406 C 257.363281 266.859375 245.222656 272.898438 232.46875 274.789062 C 221.621094 276.378906 212.097656 273.253906 202.90625 268.230469 C 201.199219 268.011719 199.054688 267.433594 196.796875 266.546875 C 192.195312 264.738281 188.734375 262.351562 189.183594 260.867188 C 189.890625 258.539062 194.027344 260.199219 195.609375 260.199219 C 197.441406 260.199219 197.152344 259.804688 198.28125 258.605469 C 199.539062 257.328125 200.957031 256.660156 202.757812 256.371094 C 208.117188 255.484375 214.03125 256.105469 219.519531 255.390625 C 220.871094 255.21875 222.058594 255.265625 223.210938 255.4375 C 220.777344 251.519531 220.121094 248.777344 220.46875 248.625 C 220.972656 248.386719 222.820312 251.761719 226.867188 256.175781 C 227.132812 256.464844 227.398438 256.75 227.671875 257.015625 C 228.722656 257.605469 229.726562 258.296875 230.71875 259.042969 C 231.894531 259.378906 233.378906 259.332031 235.042969 259.011719 C 238.914062 258.203125 243.214844 257.074219 247.597656 255.597656 C 256.382812 252.648438 264.097656 249.085938 269.757812 246.632812 C 275.410156 244.179688 279.015625 242.785156 279.238281 243.246094 C 279.480469 243.71875 276.332031 245.90625 270.933594 248.996094 C 265.550781 252.050781 257.894531 256.082031 248.773438 259.136719 C 244.230469 260.679688 239.78125 261.753906 235.59375 262.386719 C 235.445312 262.410156 235.285156 262.433594 235.132812 262.433594 C 236.585938 263.515625 238.144531 264.519531 239.929688 265.292969 C 240.332031 265.441406 240.621094 265.683594 240.886719 265.925781 C 248.21875 263.675781 255.277344 260.484375 262.207031 257.257812 C 276.640625 250.574219 290.777344 243.695312 306.5625 241.03125 C 306.804688 240.628906 307.152344 240.261719 307.648438 239.925781 C 320.847656 231.46875 336.277344 219.367188 343.042969 204.765625 C 346.238281 197.898438 345.859375 190.53125 347.851562 183.386719 C 348.519531 181.058594 349.269531 179.882812 350.03125 178.292969 C 344.796875 176.609375 341.347656 172.164062 338.710938 167.378906 C 323.894531 166.539062 305.386719 175.503906 293.015625 182.984375 C 280.25 190.660156 268.339844 200.027344 256.1875 208.613281 C 243.652344 217.441406 227.109375 225.738281 218.851562 238.714844 C 215.394531 244.132812 210.019531 246.34375 203.910156 247.359375 C 201.074219 247.855469 198.984375 247.566406 196.242188 246.96875 C 194.582031 246.585938 192.96875 246.519531 191.285156 246.484375 C 190.132812 246.460938 186.730469 245.769531 185.796875 246.34375 C 188.46875 244.707031 191.617188 243.117188 194.605469 242.160156 C 196.910156 241.4375 199.503906 241.390625 201.867188 240.859375 C 206.917969 239.683594 210.699219 237.035156 213.964844 233 C 217.238281 228.910156 219.566406 226.40625 224.054688 223.191406 C 237.207031 213.8125 250.433594 204.558594 263.625 195.246094 C 274.957031 187.238281 286.039062 178.628906 298.574219 172.542969 C 298.988281 172.140625 299.402344 171.757812 299.828125 171.367188 C 315.5 156.628906 324.007812 141.023438 325 141.625 C 325.425781 141.84375 323.835938 146.027344 320.132812 152.226562 C 317.367188 156.824219 313.285156 162.503906 308.085938 168.246094 C 315.777344 164.949219 323.984375 161.800781 332.21875 160.914062 C 333.382812 154.785156 330.074219 148.917969 331.179688 142.808594 C 331.375 141.726562 331.710938 140.886719 332.089844 140.066406 C 328.238281 138.164062 325.046875 135.308594 323.628906 131.332031 C 320.859375 132.898438 317.875 133.808594 314.3125 134.71875 C 306.042969 136.816406 300.429688 140.25 293.695312 145.3125 C 278.996094 156.398438 264.316406 167.621094 250.132812 179.355469 C 243.632812 184.746094 237.40625 190.417969 231.457031 196.421875 C 226.140625 201.746094 215.75 209.789062 213.480469 216.820312 C 212.210938 220.761719 213.226562 223.792969 210.308594 227.15625 C 207.09375 230.878906 202.085938 232.734375 197.636719 234.507812 C 195.46875 235.375 193.441406 236.582031 191.261719 237.355469 C 190.175781 237.757812 183.097656 237.804688 182.878906 238.117188 C 184.710938 235.453125 187.605469 231.652344 190.582031 230.257812 C 194.363281 228.503906 198.546875 227.617188 201.914062 225.035156 C 205.652344 222.179688 204.726562 218.789062 206.273438 215.585938 C 207.886719 212.246094 209.6875 209.960938 212.257812 207.105469 C 221.226562 197.148438 230.589844 187.71875 240.597656 178.894531 C 240.863281 178.488281 241.128906 178.097656 241.417969 177.648438 C 243.46875 174.445312 245.730469 170.433594 248.566406 166.078125 C 251.355469 161.652344 255.171875 157.226562 259.070312 152.859375 C 262.96875 148.457031 266.367188 144.203125 268.652344 139.800781 C 270.980469 135.445312 272.527344 131.148438 273.726562 127.515625 C 276.089844 120.222656 277.414062 115.566406 277.945312 115.703125 C 278.417969 115.808594 278.015625 120.589844 276.273438 128.253906 C 275.363281 132.058594 274.035156 136.621094 271.707031 141.382812 C 269.445312 146.199219 265.816406 150.890625 261.882812 155.3125 C 257.917969 159.785156 254.261719 163.84375 251.402344 168.003906 C 250.410156 169.421875 249.476562 170.792969 248.566406 172.117188 C 248.613281 172.070312 248.660156 172.046875 248.703125 172 C 261.238281 161.824219 274.035156 151.972656 286.871094 142.210938 C 287.710938 141.578125 288.585938 140.910156 289.417969 140.230469 C 289.175781 139.628906 289.140625 138.914062 289.441406 138.097656 C 292.207031 130.546875 287.007812 124.382812 286.386719 117.03125 C 286.28125 115.660156 286.386719 114.550781 286.570312 113.46875 C 281.472656 111.347656 275.511719 107.824219 273.320312 102.695312 C 248.636719 115.035156 228.089844 138.5 212.5 160.765625 C 203.75 173.269531 191.710938 191.789062 191.6875 207.414062 C 191.6875 211.796875 190.753906 217.613281 187.628906 220.980469 C 186.347656 222.351562 184.863281 223.332031 183.652344 224.828125 C 182.023438 226.824219 180.410156 228.816406 178.703125 230.71875 C 177.285156 232.320312 176.132812 234.175781 174.472656 235.523438 C 174.035156 235.902344 172.617188 237.230469 171.960938 236.722656 C 171.382812 236.273438 173.113281 233.046875 173.355469 232.46875 C 176.03125 226.429688 179.835938 220.691406 181.414062 214.296875 C 181.449219 214.121094 181.519531 213.9375 181.609375 213.765625 C 180.527344 212.925781 178.910156 212.347656 177.734375 211.378906 C 176.410156 210.34375 176.179688 209.121094 176.605469 208.855469 C 177.042969 208.566406 177.78125 208.832031 178.921875 209.007812 C 179.5 209.121094 180.238281 209.25 181.136719 209.488281 C 182.023438 209.742188 183.246094 210.25 184.214844 211.070312 C 184.421875 211.21875 184.550781 211.425781 184.734375 211.597656 C 185.125 208.789062 184.597656 206.402344 184.816406 203.566406 C 185.242188 197.816406 188.390625 192.191406 190.625 186.972656 C 196.378906 173.535156 203.597656 161.121094 212.59375 149.5625 C 217.90625 142.753906 223.464844 135.90625 229.367188 129.382812 C 229.34375 128.878906 229.4375 128.335938 229.679688 127.769531 C 234.105469 118.066406 232.757812 108.132812 232.042969 97.886719 C 231.699219 92.691406 231.71875 86.847656 230.371094 82.125 C 225.296875 81.996094 218.761719 79.851562 215.945312 75.644531 C 210.019531 81.464844 201.648438 83.988281 196.425781 91.054688 C 189.207031 100.792969 184.042969 113.332031 179.949219 124.601562 C 175.902344 135.78125 173.089844 147.398438 169.964844 158.863281 C 167.058594 169.523438 163.300781 180.4375 163.738281 191.453125 C 163.921875 191.902344 164.097656 192.410156 164.269531 193.054688 C 164.765625 194.738281 165.203125 197.007812 166.148438 199.050781 C 166.644531 200.085938 167.199219 200.949219 167.832031 201.664062 C 168.476562 202.390625 169.296875 203.128906 169.917969 203.902344 C 170.542969 204.648438 170.933594 205.46875 171.046875 206.089844 C 171.128906 206.710938 170.980469 207.058594 170.738281 207.152344 C 170.230469 207.265625 169.5625 206.597656 168.164062 205.894531 C 167.484375 205.46875 166.550781 205.03125 165.46875 204.1875 C 165.15625 203.925781 164.820312 203.613281 164.535156 203.277344 C 164.488281 203.300781 164.476562 203.347656 164.453125 203.371094 C 163.933594 203.925781 164.558594 209.269531 164.453125 210.34375 C 164.234375 212.636719 164.003906 214.941406 163.65625 217.222656 C 163.011719 221.40625 161.523438 226.210938 159.023438 229.679688 C 155.792969 234.175781 157.28125 224.367188 156.957031 223.550781 C 156.832031 223.214844 156.738281 222.871094 156.738281 222.445312 C 156.519531 216.164062 159.089844 209.800781 157.789062 203.613281 C 156.726562 204.742188 155.574219 205.617188 154.527344 206.089844 C 152.808594 206.933594 151.5625 206.863281 151.367188 206.425781 C 150.984375 205.445312 154.351562 203.253906 156.472656 199.140625 C 156.925781 198.347656 157.257812 197.574219 157.570312 196.8125 C 156.082031 186.660156 158.226562 176.921875 160.902344 166.78125 C 164.488281 153.332031 167.808594 139.652344 172.28125 126.457031 C 173.722656 122.214844 175.328125 117.988281 177.042969 113.828125 C 176.363281 113.089844 175.984375 112.074219 176.203125 110.851562 C 178.359375 99.699219 171.359375 90.167969 171.175781 79.207031 C 171.152344 77.859375 172.203125 73.25 172.351562 69.089844 C 169.917969 68.675781 167.507812 68.144531 165.15625 67.347656 C 164.339844 67.0625 163.425781 66.75 162.675781 66.289062 C 161.859375 67.566406 161.039062 68.824219 160.199219 69.421875 C 156.957031 71.773438 152.886719 72.144531 149.324219 73.789062 C 143.191406 76.660156 139.824219 82.421875 136.457031 88.105469 C 129.332031 100.238281 124.523438 113.320312 121.515625 127.011719 C 121.46875 127.148438 121.421875 127.277344 121.375 127.390625 C 122.667969 137.347656 123.441406 147.398438 124.90625 156.753906 C 126.117188 164.523438 127.382812 172.265625 128.6875 180.011719 C 129.816406 186.660156 129.886719 195.511719 132.582031 201.6875 C 132.804688 202.171875 133.078125 202.609375 133.355469 203.058594 C 133.761719 203.1875 134.164062 203.347656 134.53125 203.519531 C 137.082031 204.535156 139.25 205.375 140.886719 205.871094 C 142.511719 206.378906 143.628906 206.667969 143.722656 207.195312 C 143.792969 207.679688 142.636719 208.371094 140.597656 208.5 C 140.113281 208.523438 139.605469 208.523438 139.050781 208.476562 C 140.804688 209.871094 142.464844 211.335938 143.480469 213.351562 C 143.480469 215.183594 145.046875 217.0625 144.980469 219.125 C 144.945312 221.117188 144.738281 223.148438 144.738281 225.1875 C 144.757812 225.738281 144.738281 226.363281 144.34375 226.765625 C 143.652344 227.445312 142.464844 226.890625 141.75 226.222656 C 139.363281 224.058594 138.914062 221.117188 137.367188 218.503906 C 136.480469 217.003906 135.488281 215.5625 134.382812 214.214844 C 133.761719 213.410156 131.1875 211.335938 131.097656 210.378906 C 131.140625 210.894531 131.1875 211.402344 131.234375 211.886719 C 131.902344 215.957031 133.863281 219.457031 135.328125 221.984375 C 136.839844 224.484375 137.828125 226.121094 137.4375 226.488281 C 137.082031 226.824219 135.398438 225.832031 133.230469 223.550781 C 131.121094 221.3125 128.398438 217.558594 127.535156 212.488281 C 127.269531 209.742188 127.269531 207.300781 127.335938 205.132812 C 126.609375 203.808594 125.988281 202.367188 125.632812 200.777344 C 122.761719 188.320312 121.15625 175.367188 119.164062 162.757812 C 117.039062 149.367188 115.070312 135.953125 113.234375 122.515625 C 111.265625 108.042969 108.738281 95.386719 98.199219 84.449219 C 97.382812 83.585938 97.152344 82.59375 97.3125 81.683594 C 97.21875 81.050781 97.175781 80.429688 97.140625 79.828125 C 91.894531 80.648438 86.683594 80.359375 81.632812 78.839844 C 81.261719 79.449219 80.859375 80.070312 80.492188 80.671875 C 76.292969 87.195312 71.738281 94.765625 68.441406 101.828125 C 60.691406 118.492188 61.546875 140.355469 63.703125 158.265625 C 65.960938 177.292969 73.953125 195.351562 86.75 209.652344 C 93.300781 216.933594 99.113281 220.714844 108.625 222.824219 C 109.199219 222.800781 109.753906 222.777344 110.351562 222.707031 C 115.691406 222.351562 119.992188 220.933594 120.476562 221.890625 C 120.71875 222.328125 119.878906 223.332031 118.101562 224.300781 C 117.375 224.726562 116.441406 225.117188 115.402344 225.453125 C 118.863281 227.421875 121.929688 230.039062 125.296875 232.539062 C 126.425781 233.378906 126.808594 234.589844 126.667969 235.71875 C 127.960938 237.425781 127.820312 239.015625 127.117188 239.269531 C 126.425781 239.546875 125.550781 239.175781 124.328125 238.796875 C 123.589844 238.992188 122.78125 238.890625 121.929688 238.265625 C 121.605469 238.023438 121.320312 237.804688 121.007812 237.5625 C 120.1875 237.207031 119.347656 236.804688 118.480469 236.320312 C 116.246094 235.0625 114.410156 233.644531 113.214844 232.378906 C 110.640625 230.984375 107.898438 229.921875 104.289062 229.105469 C 99.746094 228.089844 96.136719 226.671875 92.332031 223.953125 C 84.179688 218.109375 77.445312 209.605469 72.097656 201.214844 C 59.492188 181.519531 55.976562 159.472656 56.011719 136.507812 C 56.011719 134.960938 56.035156 133.429688 56.058594 131.910156 C 52.875 130.929688 48.792969 130.203125 46.222656 128.1875 C 46.1875 128.140625 46.164062 128.09375 46.09375 128.058594 C 42.867188 130.59375 38.128906 130.304688 34.035156 128.980469 C 30.070312 137.128906 25.214844 145.472656 22.863281 154.148438 C 20.164062 164.105469 21.917969 175.898438 24.039062 185.796875 C 27.855469 203.496094 34.808594 224.277344 48 237.253906 C 54.375 243.53125 62.238281 247.933594 70.03125 252.164062 C 82.761719 259.066406 91.132812 260.3125 100.472656 251.171875 C 100.585938 250.863281 100.679688 250.574219 100.796875 250.261719 C 100.945312 249.800781 101.09375 249.351562 101.257812 248.914062 C 101.429688 248.417969 101.648438 247.980469 101.855469 247.589844 C 102.269531 246.75 102.652344 246.011719 102.941406 245.355469 C 103.539062 244.085938 103.804688 242.808594 104 241.632812 C 104.359375 239.28125 104.621094 237.644531 105.152344 237.621094 C 105.636719 237.609375 106.328125 239.039062 106.628906 241.699219 C 106.769531 242.863281 106.746094 244.351562 106.328125 245.941406 C 110.734375 243.84375 115.796875 245.964844 120.121094 249.203125 C 125.285156 243.335938 130.703125 236.320312 138.476562 235.167969 C 146.800781 233.933594 155.988281 236.433594 163.128906 240.675781 C 176.824219 248.890625 178.726562 267.839844 172.222656 281.886719 C 169.828125 287.050781 165.640625 290.945312 163.402344 296.335938 C 162.296875 299.035156 161.6875 303.265625 160.222656 306.386719 C 163.160156 306.097656 164.671875 295.425781 165.351562 293.976562 C 167.726562 288.949219 173.390625 288.15625 176.492188 283.765625 C 176.710938 283.453125 176.964844 283.234375 177.230469 283.039062 C 177.597656 282.460938 178.21875 282 179.109375 281.816406 C 190.648438 279.363281 202.78125 288.085938 212.8125 293.15625 C 213.699219 288.351562 215.21875 285.007812 216.015625 285.207031 C 217.042969 285.445312 216.640625 290.65625 216.039062 296.9375 C 215.945312 297.753906 215.867188 298.574219 215.796875 299.34375 C 216.707031 310.132812 220.203125 317.425781 231.097656 321.585938 C 240.066406 325.023438 249.71875 325.042969 259.128906 323.890625 C 275.429688 321.898438 291.699219 317.449219 305.144531 307.875 C 319.363281 297.730469 335.410156 288.488281 344.09375 272.988281 Z M 356.339844 238.773438 C 366.058594 237.851562 371.109375 246.804688 369.089844 255.289062 C 368.710938 256.832031 367.59375 257.570312 366.371094 257.628906 C 366.253906 257.695312 366.164062 257.765625 366.058594 257.8125 C 355.324219 261.996094 352.246094 273.394531 346.480469 282.175781 C 341.902344 289.214844 335.5625 293.859375 328.886719 298.746094 C 313.664062 309.878906 299.980469 321.023438 281.542969 325.988281 C 264.730469 330.53125 245.777344 334.300781 228.882812 327.9375 C 214.980469 322.71875 210.125 312.539062 209.109375 298.734375 C 205.210938 296.832031 201.339844 294.921875 197.441406 293.019531 C 192.460938 290.5625 187.261719 287.222656 181.472656 288.15625 C 180.363281 289.609375 179.175781 290.921875 177.667969 292.085938 C 176.03125 293.351562 173.839844 294.019531 172.351562 295.449219 C 169.746094 297.996094 170.34375 303.136719 169.054688 306.410156 C 166.574219 312.761719 159.886719 314.339844 155 310.882812 C 153.636719 311.03125 152.253906 310.570312 150.894531 309.371094 C 148.816406 307.515625 148.324219 303.332031 147.503906 300.925781 C 145.335938 294.460938 142.417969 289.699219 138.382812 284.261719 C 131.5 274.984375 129.285156 263.917969 117.777344 259.011719 C 115.820312 258.15625 115.691406 256.347656 116.488281 254.929688 C 116.488281 254.863281 116.464844 254.804688 116.464844 254.734375 C 112.394531 251.703125 109.800781 252.429688 105.464844 256.476562 C 102.386719 259.332031 99.816406 261.832031 95.789062 263.457031 C 89.472656 265.949219 83.339844 265.511719 77.101562 263.125 C 61.824219 257.28125 45.230469 246.78125 35.925781 233.070312 C 25.019531 216.957031 18.179688 195.800781 15.828125 176.65625 C 13.304688 156.179688 20.613281 142.039062 29.113281 123.910156 C 27.625 118.378906 35.003906 115.660156 39.960938 115.878906 C 43.351562 116.0625 46.777344 117.144531 48.839844 119.992188 C 50.109375 121.765625 50.085938 122.632812 52.160156 123.566406 C 53.488281 124.152344 54.949219 124.601562 56.367188 125.039062 C 56.921875 116.914062 58.25 108.835938 61.375 101.300781 C 63.539062 96.066406 66.6875 91.539062 69.699219 86.777344 C 72.605469 82.191406 73.492188 76.902344 76.003906 72.375 C 79.84375 65.550781 88.988281 65.136719 96.113281 66.898438 C 104.171875 68.894531 102.582031 73.410156 103.804688 80.40625 C 103.816406 80.542969 103.816406 80.671875 103.816406 80.820312 C 111.792969 89.566406 116.09375 100.25 118.703125 111.695312 C 122.667969 98.878906 128.398438 86.292969 136.527344 75.867188 C 140.449219 70.816406 144.125 69.113281 149.71875 66.554688 C 154.261719 64.492188 156.726562 62.253906 160.105469 58.867188 C 162.238281 56.746094 162.273438 55.421875 165.15625 53.980469 C 174.277344 49.441406 181.96875 58.246094 180.550781 66.96875 C 179.707031 72.257812 177.5625 76.105469 178.175781 81.730469 C 178.601562 85.625 179.925781 89.234375 181.011719 92.992188 C 181.828125 95.847656 182.476562 98.578125 182.855469 101.277344 C 184.664062 97.726562 186.589844 94.28125 188.65625 90.9375 C 191.261719 86.734375 193.96875 82.90625 197.925781 79.898438 C 203.136719 75.957031 209.570312 74.34375 213.316406 68.546875 C 213.421875 68.386719 213.558594 68.226562 213.699219 68.097656 C 214.183594 67.152344 215.082031 66.390625 216.464844 66.3125 C 222.390625 65.929688 229.058594 66.820312 233.796875 70.816406 C 237.714844 74.136719 237.347656 78.261719 237.679688 83.125 C 238.511719 95.191406 240.703125 107.730469 238.800781 119.667969 C 249.429688 109.414062 261.238281 100.5625 274.738281 94.742188 C 275.453125 93.683594 276.664062 92.933594 278.246094 93.175781 C 285.902344 94.28125 296 97.867188 294.929688 107.582031 C 294.734375 109.332031 293.695312 110.75 293.359375 112.410156 C 292.347656 117.492188 294.273438 121.214844 295.644531 125.777344 C 296.578125 128.855469 297.132812 131.679688 296.945312 134.582031 C 299.300781 133.015625 301.707031 131.597656 304.304688 130.570312 C 310.726562 128.023438 317.964844 128.429688 323.304688 123.402344 C 323.363281 123.355469 323.433594 123.324219 323.476562 123.277344 C 323.871094 122.78125 324.457031 122.433594 325.300781 122.273438 C 332.714844 121.019531 341.371094 124.980469 342.097656 133.359375 C 342.527344 138.339844 337.84375 140.953125 337.578125 145.957031 C 337.359375 150.265625 338.664062 154.128906 338.882812 158.242188 C 342.652344 155.257812 348.300781 156.824219 353.042969 159.992188 C 360.789062 165.167969 361.515625 170.433594 357.445312 178.15625 C 353.042969 186.476562 353.617188 194.796875 350.898438 203.496094 C 349.179688 208.960938 345.859375 213.523438 342.316406 217.925781 C 335.699219 226.210938 328.054688 233.402344 319.648438 239.683594 C 324.964844 239.441406 330.304688 239.488281 335.628906 239.800781 C 339.527344 240.019531 343.851562 241.148438 347.703125 240.859375 C 350.828125 240.617188 353.328125 239.039062 356.339844 238.773438 " fill-opacity="1" fill-rule="nonzero"/><path fill="#000000" d="M 350.664062 256.96875 C 351 257.9375 343.691406 261.5 335.238281 266.996094 C 326.730469 272.4375 319.671875 276.863281 319.027344 275.972656 C 318.449219 275.203125 324.492188 269.453125 333.222656 263.828125 C 337.601562 261.0625 341.878906 259.011719 345.132812 257.902344 C 348.359375 256.773438 350.492188 256.496094 350.664062 256.96875 " fill-opacity="1" fill-rule="nonzero"/><path fill="#000000" d="M 338.203125 178.90625 C 338.617188 179.113281 337.488281 183.492188 334.617188 190.289062 C 333.152344 193.667969 331.203125 197.65625 328.414062 201.769531 C 325.667969 205.929688 321.863281 209.960938 317.722656 213.71875 C 309.480469 221.222656 301.824219 227.800781 296.023438 232.296875 C 290.246094 236.78125 286.386719 239.199219 286.074219 238.796875 C 285.738281 238.40625 289.003906 235.257812 294.316406 230.28125 C 299.632812 225.324219 306.976562 218.433594 315.199219 210.953125 C 319.269531 207.242188 322.878906 203.589844 325.597656 199.796875 C 328.390625 196.019531 330.523438 192.296875 332.242188 189.136719 C 335.652344 182.789062 337.695312 178.707031 338.203125 178.90625 " fill-opacity="1" fill-rule="nonzero"/><path fill="#000000" d="M 314 278.902344 C 314.3125 279.257812 310.484375 283.441406 303.289062 289.167969 C 296.128906 294.875 285.496094 301.960938 272.734375 307.828125 C 266.390625 310.8125 259.84375 313.09375 253.664062 313.867188 C 247.527344 314.707031 241.972656 314.535156 237.382812 314.109375 C 232.828125 313.738281 228.976562 312.898438 226.625 311.585938 C 224.238281 310.28125 223.417969 308.957031 223.570312 308.820312 C 223.765625 308.597656 224.894531 309.488281 227.199219 310.234375 C 229.507812 311.03125 233.023438 311.433594 237.542969 311.480469 C 242.015625 311.5625 247.367188 311.457031 253.132812 310.453125 C 258.910156 309.53125 264.9375 307.367188 271.152344 304.4375 C 296.242188 292.972656 313.285156 277.992188 314 278.902344 " fill-opacity="1" fill-rule="nonzero"/><path fill="#000000" d="M 216.304688 82.355469 C 216.742188 82.664062 213.558594 87.597656 208.554688 95.628906 C 203.597656 103.664062 196.839844 114.839844 190.867188 127.851562 C 184.839844 140.886719 180.964844 153.308594 178.890625 162.472656 C 176.734375 171.5625 176.074219 177.40625 175.5 177.40625 C 175.050781 177.382812 174.796875 171.4375 176.292969 161.953125 C 177.757812 152.492188 181.320312 139.582031 187.457031 126.308594 C 193.589844 113.007812 200.785156 101.875 206.367188 94.144531 C 211.992188 86.445312 215.9375 82.042969 216.304688 82.355469 " fill-opacity="1" fill-rule="nonzero"/><path fill="#000000" d="M 184.261719 251.542969 C 186.0625 254.46875 187.03125 259.378906 186.324219 264.378906 C 186.015625 266.90625 185.507812 269.164062 184.882812 271.261719 C 184.214844 273.347656 183.363281 275.226562 182.335938 276.621094 C 180.261719 279.523438 177.933594 280.101562 177.757812 279.652344 C 177.472656 279.1875 178.921875 277.945312 180.054688 275.292969 C 181.230469 272.703125 182.003906 268.539062 182.625 263.941406 C 183.222656 259.378906 182.808594 255.414062 181.851562 252.648438 C 180.964844 249.859375 179.789062 248.316406 180.167969 247.914062 C 180.480469 247.566406 182.496094 248.535156 184.261719 251.542969 " fill-opacity="1" fill-rule="nonzero"/><path fill="#000000" d="M 165.929688 72.167969 C 166.148438 72.1875 166.148438 73.871094 164.648438 76.246094 C 163.921875 77.421875 162.851562 78.699219 161.71875 80.164062 C 160.601562 81.582031 159.507812 83.296875 158.386719 85.363281 C 153.867188 93.542969 148.265625 105.277344 144.011719 118.886719 C 139.722656 132.507812 137.585938 145.3125 136.597656 154.632812 C 135.59375 163.96875 135.441406 169.8125 134.867188 169.835938 C 134.417969 169.859375 133.632812 163.992188 133.957031 154.4375 C 134.289062 144.917969 136.042969 131.699219 140.449219 117.78125 C 144.804688 103.824219 150.941406 92 156.128906 83.988281 C 157.429688 81.972656 158.78125 80.1875 160.152344 78.792969 C 161.476562 77.421875 162.632812 76.328125 163.472656 75.382812 C 165.179688 73.480469 165.640625 72.109375 165.929688 72.167969 " fill-opacity="1" fill-rule="nonzero"/><path fill="#000000" d="M 87.882812 180.242188 C 90.246094 189.816406 91.46875 195.800781 90.984375 195.949219 C 90.476562 196.085938 88.367188 190.347656 85.332031 180.96875 C 83.84375 176.253906 82.035156 170.675781 80.304688 164.347656 C 78.621094 158 77.03125 150.820312 76.742188 143.097656 C 76.453125 135.308594 77.699219 128.09375 78.691406 121.699219 C 79.730469 115.253906 80.722656 109.457031 81.597656 104.59375 C 83.359375 94.902344 84.6875 88.921875 85.195312 89.015625 C 85.714844 89.09375 85.285156 95.214844 84.203125 104.988281 C 83.671875 109.886719 82.957031 115.703125 82.105469 122.171875 C 81.273438 128.625 80.191406 135.6875 80.492188 142.949219 C 80.742188 150.265625 82.171875 157.226562 83.648438 163.484375 C 85.242188 169.789062 86.683594 175.480469 87.882812 180.242188 " fill-opacity="1" fill-rule="nonzero"/><path fill="#000000" d="M 60.3125 232.421875 C 67.53125 240.699219 73.710938 244.0625 73.375 244.59375 C 73.238281 244.972656 66.421875 242.378906 58.363281 234.222656 C 54.351562 230.164062 50.164062 224.769531 46.359375 218.328125 C 42.507812 211.886719 39.015625 204.476562 35.535156 196.6875 C 33.78125 192.769531 32.121094 188.804688 31.175781 184.691406 C 30.21875 180.585938 29.929688 176.542969 30.023438 172.761719 C 30.21875 165.144531 31.707031 158.550781 32.917969 153.078125 C 35.441406 142.257812 37.285156 135.617188 37.816406 135.617188 C 38.324219 135.734375 37.390625 142.589844 35.511719 153.597656 C 34.625 159.082031 33.457031 165.605469 33.480469 172.785156 C 33.480469 176.371094 33.804688 180.101562 34.738281 183.824219 C 35.625 187.558594 37.21875 191.28125 38.945312 195.152344 C 42.394531 202.921875 45.761719 210.25 49.335938 216.601562 C 52.898438 222.949219 56.679688 228.285156 60.3125 232.421875 " fill-opacity="1" fill-rule="nonzero"/></svg>